<svg id="Layer_1" data-name="Layer 1" xmlns="http://www.w3.org/2000/svg" viewBox="0 0 542.86 176.9"><defs><style>.cls-1{fill:#38b6ac;}.cls-2{fill:#e94861;}.cls-3{fill:#703f4c;}.cls-4{fill:#063a3e;}.cls-5{fill:#fff;}</style></defs><title>CREDS-Logo</title><path class="cls-1" d="M211.06,88.39l33-50.87a26.83,26.83,0,0,1,29.44-11.34l35.38,9.44-4.34-15.8A26.93,26.93,0,0,0,259.38,8L195.22,73a26.93,26.93,0,0,0,12.35,45l4.67,1.22A26.8,26.8,0,0,1,211.06,88.39Z"/><path class="cls-2" d="M351.93,66.31A26.86,26.86,0,0,0,332,41.81l-23.19-6.19,19.82,72.23A26.93,26.93,0,0,1,295.88,141l-83.64-21.87c.18.24.31.5.5.74L250.94,167a26.85,26.85,0,0,0,30.49,8.14L338,153.32a26.83,26.83,0,0,0,17.16-26.47Z"/><path class="cls-3" d="M328.67,107.85,308.85,35.62l-35.38-9.44A26.83,26.83,0,0,0,244,37.52l-33,50.87a26.8,26.8,0,0,0,1.18,30.77L295.88,141A26.93,26.93,0,0,0,328.67,107.85Z"/><path class="cls-4" d="M0,85.52A29.55,29.55,0,0,1,1.9,75.15a27.83,27.83,0,0,1,14.41-15.7A27.33,27.33,0,0,1,28.25,57a26.07,26.07,0,0,1,13.68,3.47,22.13,22.13,0,0,1,8.6,9L42,75.35a14.65,14.65,0,0,0-2.74-4.08,13.91,13.91,0,0,0-3.47-2.62,16,16,0,0,0-3.88-1.41,18.07,18.07,0,0,0-3.95-.45,15,15,0,0,0-7.31,1.7,16.08,16.08,0,0,0-5.16,4.4A19.48,19.48,0,0,0,12.35,79a23.27,23.27,0,0,0-1,6.82,22.2,22.2,0,0,0,1.21,7.31,19.57,19.57,0,0,0,3.43,6.18,17.16,17.16,0,0,0,5.33,4.27,14.51,14.51,0,0,0,6.82,1.62,17.61,17.61,0,0,0,4-.49,15.24,15.24,0,0,0,4-1.53,15,15,0,0,0,3.51-2.7,12.61,12.61,0,0,0,2.59-4l9.12,5.25a17.26,17.26,0,0,1-3.92,5.69,25,25,0,0,1-5.73,4.15,29.3,29.3,0,0,1-6.82,2.59,30,30,0,0,1-7.1.89,24.44,24.44,0,0,1-11.22-2.59,29.24,29.24,0,0,1-8.76-6.74A31.22,31.22,0,0,1,2.06,96.3,29.56,29.56,0,0,1,0,85.52Z"/><path class="cls-4" d="M109.07,114.58V57.27h25.35a16.17,16.17,0,0,1,7.3,1.66,18.85,18.85,0,0,1,5.77,4.35,20.66,20.66,0,0,1,3.8,6.14,18.56,18.56,0,0,1,1.37,6.9,19,19,0,0,1-2.79,10.13A16,16,0,0,1,142.33,93l13.07,21.55H142.89l-11.7-19.21h-11v19.21Zm11.14-29h14a5.93,5.93,0,0,0,2.87-.72,7.49,7.49,0,0,0,2.3-2,9.58,9.58,0,0,0,1.53-3,11.32,11.32,0,0,0,.57-3.63,10.36,10.36,0,0,0-.65-3.71,9.89,9.89,0,0,0-1.73-3,8,8,0,0,0-2.5-1.94,6.63,6.63,0,0,0-2.87-.68H120.21Z"/><path class="cls-5" d="M299.48,104.81v9.77h-39.8V57.27h39.07V67H270.82v13.8H295v9H270.82v14.93Z"/><path class="cls-4" d="M390.77,114.58V57.27h20.82a31,31,0,0,1,12.31,2.26,24.72,24.72,0,0,1,14.17,15.22,34.23,34.23,0,0,1,1.77,11.09,33.51,33.51,0,0,1-2,11.83,25.27,25.27,0,0,1-5.69,9,25.67,25.67,0,0,1-8.92,5.81,31.55,31.55,0,0,1-11.67,2.06Zm37.85-28.74a24.15,24.15,0,0,0-1.13-7.58,16.94,16.94,0,0,0-3.3-6,15,15,0,0,0-5.37-3.87A18.24,18.24,0,0,0,411.59,67h-9.68v37.77h9.68a17.44,17.44,0,0,0,7.31-1.45,15.11,15.11,0,0,0,5.33-4,17.82,17.82,0,0,0,3.26-6A23.88,23.88,0,0,0,428.62,85.84Z"/><path class="cls-4" d="M535.92,72.28a14.61,14.61,0,0,0-2.06-1.53,25.21,25.21,0,0,0-3.63-1.9,32.35,32.35,0,0,0-4.64-1.57,20.36,20.36,0,0,0-5.09-.65q-4.59,0-6.86,1.7a5.6,5.6,0,0,0-2.26,4.76,4.86,4.86,0,0,0,.85,3,7.33,7.33,0,0,0,2.46,2.06,20.5,20.5,0,0,0,4.08,1.61c1.64.48,3.53,1,5.69,1.53q4.2,1.14,7.62,2.43a20.71,20.71,0,0,1,5.82,3.22,13.44,13.44,0,0,1,3.67,4.65,15.37,15.37,0,0,1,1.29,6.65,16.7,16.7,0,0,1-1.73,7.88,14.59,14.59,0,0,1-4.69,5.28,20.21,20.21,0,0,1-6.78,3,33.9,33.9,0,0,1-8,.93,43.21,43.21,0,0,1-12.75-1.94,39.16,39.16,0,0,1-11.3-5.49l4.92-9.61a15.57,15.57,0,0,0,2.62,1.9,40.77,40.77,0,0,0,4.48,2.34,35.39,35.39,0,0,0,5.74,2,25.8,25.8,0,0,0,6.45.81q9.21,0,9.21-5.89a4.88,4.88,0,0,0-1-3.15,8.87,8.87,0,0,0-3-2.26,28.27,28.27,0,0,0-4.68-1.78q-2.74-.81-6.14-1.77A53,53,0,0,1,509,87.9,18.66,18.66,0,0,1,504,84.76a11.88,11.88,0,0,1-3-4.2,14.43,14.43,0,0,1-1-5.69,17.9,17.9,0,0,1,1.61-7.75A15.65,15.65,0,0,1,506,61.47,20.22,20.22,0,0,1,512.67,58a27.54,27.54,0,0,1,8.15-1.17A31.73,31.73,0,0,1,532,58.76a41.86,41.86,0,0,1,8.88,4.48Z"/></svg>