<svg width="542.86" height="176.9" xmlns="http://www.w3.org/2000/svg">
 <defs>
  <style>.cls-1{fill:#38b6ac;}.cls-2{fill:#e94861;}.cls-3{fill:#703f4c;}.cls-4{fill:#063a3e;}.cls-5{fill:#fff;}</style>
 </defs>
 <title>CREDS-Logo</title>
 <g>
  <title>Layer 1</title>
  <path id="svg_1" d="m211.06,88.39l33,-50.87a26.83,26.83 0 0 1 29.44,-11.34l35.38,9.44l-4.34,-15.8a26.93,26.93 0 0 0 -45.16,-11.82l-64.16,65a26.93,26.93 0 0 0 12.35,45l4.67,1.22a26.8,26.8 0 0 1 -1.18,-30.83z" class="cls-1"/>
  <path id="svg_2" d="m351.93,66.31a26.86,26.86 0 0 0 -19.93,-24.5l-23.19,-6.19l19.82,72.23a26.93,26.93 0 0 1 -32.75,33.15l-83.64,-21.87c0.18,0.24 0.31,0.5 0.5,0.74l38.2,47.13a26.85,26.85 0 0 0 30.49,8.14l56.57,-21.82a26.83,26.83 0 0 0 17.16,-26.47l-3.23,-60.54z" class="cls-2"/>
  <path id="svg_3" d="m328.67,107.85l-19.82,-72.23l-35.38,-9.44a26.83,26.83 0 0 0 -29.47,11.34l-33,50.87a26.8,26.8 0 0 0 1.18,30.77l83.7,21.84a26.93,26.93 0 0 0 32.79,-33.15z" class="cls-3"/>
  <path id="svg_4" d="m0,85.52a29.55,29.55 0 0 1 1.9,-10.37a27.83,27.83 0 0 1 14.41,-15.7a27.33,27.33 0 0 1 11.94,-2.45a26.07,26.07 0 0 1 13.68,3.47a22.13,22.13 0 0 1 8.6,9l-8.53,5.88a14.65,14.65 0 0 0 -2.74,-4.08a13.91,13.91 0 0 0 -3.47,-2.62a16,16 0 0 0 -3.88,-1.41a18.07,18.07 0 0 0 -3.95,-0.45a15,15 0 0 0 -7.31,1.7a16.08,16.08 0 0 0 -5.16,4.4a19.48,19.48 0 0 0 -3.14,6.11a23.27,23.27 0 0 0 -1,6.82a22.2,22.2 0 0 0 1.21,7.31a19.57,19.57 0 0 0 3.43,6.18a17.16,17.16 0 0 0 5.33,4.27a14.51,14.51 0 0 0 6.82,1.62a17.61,17.61 0 0 0 4,-0.49a15.24,15.24 0 0 0 4,-1.53a15,15 0 0 0 3.51,-2.7a12.61,12.61 0 0 0 2.59,-4l9.12,5.25a17.26,17.26 0 0 1 -3.92,5.69a25,25 0 0 1 -5.73,4.15a29.3,29.3 0 0 1 -6.82,2.59a30,30 0 0 1 -7.1,0.89a24.44,24.44 0 0 1 -11.22,-2.59a29.24,29.24 0 0 1 -8.76,-6.74a31.22,31.22 0 0 1 -5.75,-9.42a29.56,29.56 0 0 1 -2.06,-10.78z" class="cls-4"/>
  <path id="svg_5" d="m109.07,114.58l0,-57.31l25.35,0a16.17,16.17 0 0 1 7.3,1.66a18.85,18.85 0 0 1 5.77,4.35a20.66,20.66 0 0 1 3.8,6.14a18.56,18.56 0 0 1 1.37,6.9a19,19 0 0 1 -2.79,10.13a16,16 0 0 1 -7.54,6.55l13.07,21.55l-12.51,0l-11.7,-19.21l-11,0l0,19.21l-11.12,0.03zm11.14,-29l14,0a5.93,5.93 0 0 0 2.87,-0.72a7.49,7.49 0 0 0 2.3,-2a9.58,9.58 0 0 0 1.53,-3a11.32,11.32 0 0 0 0.57,-3.63a10.36,10.36 0 0 0 -0.65,-3.71a9.89,9.89 0 0 0 -1.73,-3a8,8 0 0 0 -2.5,-1.94a6.63,6.63 0 0 0 -2.87,-0.68l-13.52,0l0,18.68z" class="cls-4"/>
  <path id="svg_6" d="m299.48,104.81l0,9.77l-39.8,0l0,-57.31l39.07,0l0,9.73l-27.93,0l0,13.8l24.18,0l0,9l-24.18,0l0,14.93l28.66,0.08z" class="cls-5"/>
  <path id="svg_7" d="m390.77,114.58l0,-57.31l20.82,0a31,31 0 0 1 12.31,2.26a24.72,24.72 0 0 1 14.17,15.22a34.23,34.23 0 0 1 1.77,11.09a33.51,33.51 0 0 1 -2,11.83a25.27,25.27 0 0 1 -5.69,9a25.67,25.67 0 0 1 -8.92,5.81a31.55,31.55 0 0 1 -11.67,2.06l-20.79,0.04zm37.85,-28.74a24.15,24.15 0 0 0 -1.13,-7.58a16.94,16.94 0 0 0 -3.3,-6a15,15 0 0 0 -5.37,-3.87a18.24,18.24 0 0 0 -7.23,-1.39l-9.68,0l0,37.77l9.68,0a17.44,17.44 0 0 0 7.31,-1.45a15.11,15.11 0 0 0 5.33,-4a17.82,17.82 0 0 0 3.26,-6a23.88,23.88 0 0 0 1.13,-7.48z" class="cls-4"/>
  <path id="svg_8" d="m535.92,72.28a14.61,14.61 0 0 0 -2.06,-1.53a25.21,25.21 0 0 0 -3.63,-1.9a32.35,32.35 0 0 0 -4.64,-1.57a20.36,20.36 0 0 0 -5.09,-0.65q-4.59,0 -6.86,1.7a5.6,5.6 0 0 0 -2.26,4.76a4.86,4.86 0 0 0 0.85,3a7.33,7.33 0 0 0 2.46,2.06a20.5,20.5 0 0 0 4.08,1.61c1.64,0.48 3.53,1 5.69,1.53q4.2,1.14 7.62,2.43a20.71,20.71 0 0 1 5.82,3.22a13.44,13.44 0 0 1 3.67,4.65a15.37,15.37 0 0 1 1.29,6.65a16.7,16.7 0 0 1 -1.73,7.88a14.59,14.59 0 0 1 -4.69,5.28a20.21,20.21 0 0 1 -6.78,3a33.9,33.9 0 0 1 -8,0.93a43.21,43.21 0 0 1 -12.75,-1.94a39.16,39.16 0 0 1 -11.3,-5.49l4.92,-9.61a15.57,15.57 0 0 0 2.62,1.9a40.77,40.77 0 0 0 4.48,2.34a35.39,35.39 0 0 0 5.74,2a25.8,25.8 0 0 0 6.45,0.81q9.21,0 9.21,-5.89a4.88,4.88 0 0 0 -1,-3.15a8.87,8.87 0 0 0 -3,-2.26a28.27,28.27 0 0 0 -4.68,-1.78q-2.74,-0.81 -6.14,-1.77a53,53 0 0 1 -7.21,-2.59a18.66,18.66 0 0 1 -5,-3.14a11.88,11.88 0 0 1 -3,-4.2a14.43,14.43 0 0 1 -1,-5.69a17.9,17.9 0 0 1 1.61,-7.75a15.65,15.65 0 0 1 4.39,-5.65a20.22,20.22 0 0 1 6.67,-3.47a27.54,27.54 0 0 1 8.15,-1.17a31.73,31.73 0 0 1 11.18,1.93a41.86,41.86 0 0 1 8.88,4.48l-4.96,9.04z" class="cls-4"/>
 </g>
</svg>