<?xml version="1.0" encoding="utf-8"?>
<!-- Generator: Adobe Illustrator 25.2.1, SVG Export Plug-In . SVG Version: 6.00 Build 0)  -->
<svg version="1.1" id="Layer_1" xmlns="http://www.w3.org/2000/svg" xmlns:xlink="http://www.w3.org/1999/xlink" x="0px" y="0px"
	 viewBox="0 0 542.9 176.9" style="enable-background:new 0 0 542.9 176.9;" xml:space="preserve">
<style type="text/css">
	.st0{fill:#6FB4AB;}
	.st1{fill:#CB4A61;}
	.st2{fill:#65414D;}
	.st3{fill:#FFFFFF;}
</style>
<path class="st0" d="M211.1,88.4l33-50.9c6.3-9.8,18.2-14.3,29.4-11.3l35.4,9.4l-4.3-15.8C299-0.2,274-6.7,259.4,8L195.2,73
	c-14.6,14.7-7.7,39.7,12.3,45l4.7,1.2C205.4,110.2,204.9,97.9,211.1,88.4z"/>
<path class="st1" d="M351.9,66.3c-0.6-11.6-8.6-21.5-19.9-24.5l-23.2-6.2l19.8,72.2c5.5,20-12.7,38.4-32.8,33.2l-83.6-21.9
	c0.2,0.2,0.3,0.5,0.5,0.7l38.2,47.1c7.3,9,19.6,12.3,30.5,8.1l56.6-21.8c10.9-4.2,17.8-14.9,17.2-26.5L351.9,66.3z"/>
<path class="st2" d="M328.7,107.8l-19.8-72.2l-35.4-9.4c-11.2-3-23.1,1.6-29.4,11.3l-33,50.9c-6.2,9.5-5.6,21.8,1.2,30.8l83.6,21.9
	C315.9,146.3,334.2,127.8,328.7,107.8z"/>
<path class="st3" d="M0,85.5c0-3.5,0.6-7,1.9-10.4C3.2,71.7,5,68.7,7.4,66c2.4-2.7,5.4-4.9,8.9-6.5c3.5-1.7,7.5-2.5,11.9-2.5
	c5.3,0,9.8,1.2,13.7,3.5c3.8,2.3,6.7,5.3,8.6,9L42,75.4c-0.8-1.6-1.7-3-2.7-4.1c-1.1-1.1-2.2-2-3.5-2.6c-1.2-0.6-2.5-1.1-3.9-1.4
	c-1.3-0.3-2.7-0.4-4-0.4c-2.8,0-5.2,0.6-7.3,1.7c-2.1,1.1-3.8,2.6-5.2,4.4c-1.4,1.8-2.4,3.8-3.1,6.1c-0.7,2.3-1.1,4.6-1.1,6.8
	c0,2.5,0.4,5,1.2,7.3c0.8,2.3,1.9,4.4,3.4,6.2c1.5,1.8,3.3,3.2,5.3,4.3c2.1,1.1,4.3,1.6,6.8,1.6c1.3,0,2.6-0.2,4-0.5
	c1.4-0.3,2.7-0.8,4-1.5c1.3-0.7,2.4-1.6,3.5-2.7c1.1-1.1,1.9-2.4,2.6-4l9.1,5.2c-0.9,2.2-2.2,4.1-3.9,5.7c-1.7,1.6-3.6,3-5.7,4.2
	c-2.1,1.1-4.4,2-6.8,2.6c-2.4,0.6-4.8,0.9-7.1,0.9c-4.1,0-7.8-0.9-11.2-2.6c-3.4-1.7-6.3-4-8.8-6.7c-2.4-2.8-4.4-5.9-5.7-9.4
	C0.7,92.8,0,89.2,0,85.5z"/>
<path class="st3" d="M109.1,114.6V57.3h25.3c2.6,0,5.1,0.6,7.3,1.7c2.2,1.1,4.2,2.6,5.8,4.4c1.6,1.8,2.9,3.8,3.8,6.1
	c0.9,2.3,1.4,4.6,1.4,6.9c0,3.7-0.9,7.1-2.8,10.1c-1.9,3-4.4,5.2-7.5,6.6l13.1,21.6h-12.5l-11.7-19.2h-11v19.2H109.1z M120.2,85.6
	h14c1,0,2-0.2,2.9-0.7c0.9-0.5,1.7-1.1,2.3-2c0.6-0.8,1.2-1.8,1.5-2.9s0.6-2.3,0.6-3.6c0-1.3-0.2-2.6-0.6-3.7
	c-0.4-1.1-1-2.1-1.7-2.9c-0.7-0.8-1.6-1.5-2.5-1.9c-0.9-0.5-1.9-0.7-2.9-0.7h-13.5V85.6z"/>
<path class="st3" d="M299.5,104.8v9.8h-39.8V57.3h39.1V67h-27.9v13.8H295v9h-24.1v14.9H299.5z"/>
<path class="st3" d="M390.8,114.6V57.3h20.8c4.7,0,8.8,0.8,12.3,2.3c3.5,1.5,6.5,3.6,8.8,6.1c2.4,2.6,4.1,5.6,5.3,9.1
	c1.2,3.5,1.8,7.2,1.8,11.1c0,4.4-0.7,8.3-2,11.8c-1.3,3.5-3.2,6.5-5.7,9c-2.5,2.5-5.4,4.4-8.9,5.8c-3.5,1.4-7.4,2.1-11.7,2.1H390.8z
	 M428.6,85.8c0-2.7-0.4-5.3-1.1-7.6c-0.8-2.3-1.9-4.3-3.3-6c-1.5-1.7-3.2-3-5.4-3.9c-2.1-0.9-4.5-1.4-7.2-1.4h-9.7v37.8h9.7
	c2.7,0,5.2-0.5,7.3-1.5c2.1-1,3.9-2.3,5.3-4c1.4-1.7,2.5-3.7,3.3-6S428.6,88.5,428.6,85.8z"/>
<path class="st3" d="M535.9,72.3c-0.4-0.4-1.1-0.9-2.1-1.5c-1-0.6-2.2-1.3-3.6-1.9c-1.4-0.6-3-1.1-4.6-1.6c-1.7-0.4-3.4-0.6-5.1-0.6
	c-3.1,0-5.4,0.6-6.9,1.7c-1.5,1.1-2.3,2.7-2.3,4.8c0,1.2,0.3,2.2,0.8,2.9c0.6,0.8,1.4,1.5,2.5,2.1c1.1,0.6,2.4,1.1,4.1,1.6
	c1.6,0.5,3.5,1,5.7,1.5c2.8,0.8,5.3,1.6,7.6,2.4c2.3,0.9,4.2,1.9,5.8,3.2c1.6,1.3,2.8,2.8,3.7,4.6c0.9,1.8,1.3,4,1.3,6.7
	c0,3.1-0.6,5.7-1.7,7.9c-1.2,2.2-2.7,3.9-4.7,5.3c-2,1.3-4.2,2.3-6.8,2.9c-2.6,0.6-5.2,0.9-8,0.9c-4.3,0-8.6-0.6-12.8-1.9
	c-4.2-1.3-8-3.1-11.3-5.5l4.9-9.6c0.5,0.5,1.4,1.1,2.6,1.9c1.3,0.8,2.8,1.6,4.5,2.3c1.7,0.8,3.6,1.4,5.7,2c2.1,0.5,4.3,0.8,6.5,0.8
	c6.1,0,9.2-2,9.2-5.9c0-1.2-0.4-2.3-1-3.1c-0.7-0.9-1.7-1.6-3-2.3c-1.3-0.6-2.9-1.2-4.7-1.8c-1.8-0.5-3.9-1.1-6.1-1.8
	c-2.7-0.8-5.1-1.6-7.1-2.5c-2-0.9-3.7-1.9-5-3.1c-1.3-1.2-2.4-2.6-3-4.2c-0.7-1.6-1-3.5-1-5.7c0-2.9,0.5-5.5,1.6-7.7
	c1.1-2.3,2.6-4.1,4.5-5.7c1.9-1.5,4.1-2.7,6.7-3.4c2.5-0.8,5.2-1.2,8.2-1.2c4,0,7.7,0.6,11.1,1.9c3.4,1.3,6.3,2.8,8.9,4.5
	L535.9,72.3z"/>
</svg>
